# xmcd
#
# Track frame offsets: 
#        150
#        2067
#        18810
#        40470
#        69162
#        89600
#        108477
#        131075
#        143937
#        162737
#
# Disc length: 2921 seconds
#
# Revision: 2
# Processed by: cddbd v1.5.1PL0 Copyright (c) Steve Scherf et al.
# Submitted via: ExactAudioCopy v0.95a5
#
DISCID=870b670a
DTITLE=Louis Armstrong - Satchmo The Great
DYEAR=1900
DGENRE=Jazz
TTITLE0=Introduction
TTITLE1=When It's Sleepy Time Down South
TTITLE2=(Back Home Again) In Indiana
TTITLE3=Paris Interview
TTITLE4=Flee As A Bird To The Mountain/Oh Didn't He Ramble
TTITLE5=Mack The Knife
TTITLE6=Mahogany Hall Stomp
TTITLE7=All For You, Louis (Sly Mongoose)
TTITLE8=(What Did I Do To Be So) Black And Blue
TTITLE9=St. Louis Blues (Concerto Grosso)
EXTD=
EXTT0=
EXTT1=
EXTT2=
EXTT3=
EXTT4=
EXTT5=
EXTT6=
EXTT7=
EXTT8=
EXTT9=
PLAYORDER=
